<svg width="57" height="51" viewBox="0 0 57 51" fill="none" xmlns="http://www.w3.org/2000/svg">
<path d="M15.8351 17.3066H22.1688V23.6C22.1688 24.0172 22.3356 24.4174 22.6326 24.7125C22.9295 25.0075 23.3323 25.1733 23.7522 25.1733H30.0859C30.5058 25.1733 30.9085 25.0075 31.2055 24.7125C31.5024 24.4174 31.6693 24.0172 31.6693 23.6V17.3066H38.0029C38.4229 17.3066 38.8256 17.1409 39.1226 16.8458C39.4195 16.5508 39.5863 16.1506 39.5863 15.7333V9.43998C39.5863 9.02271 39.4195 8.62253 39.1226 8.32747C38.8256 8.03241 38.4229 7.86665 38.0029 7.86665H31.6693V1.57333C31.6693 1.15606 31.5024 0.755874 31.2055 0.460818C30.9085 0.165761 30.5058 0 30.0859 0H23.7522C23.3323 0 22.9295 0.165761 22.6326 0.460818C22.3356 0.755874 22.1688 1.15606 22.1688 1.57333V7.86665H15.8351C15.4152 7.86665 15.0124 8.03241 14.7155 8.32747C14.4185 8.62253 14.2517 9.02271 14.2517 9.43998V15.7333C14.2517 16.1506 14.4185 16.5508 14.7155 16.8458C15.0124 17.1409 15.4152 17.3066 15.8351 17.3066ZM56.231 33.0704C55.9233 32.6537 55.5359 32.3014 55.0908 32.0338C54.6458 31.7663 54.1519 31.5887 53.6376 31.5113C53.1233 31.4339 52.5987 31.4583 52.0939 31.5829C51.5891 31.7075 51.114 31.93 50.696 32.2375L38.853 40.9086H26.917C26.4971 40.9086 26.0944 40.7428 25.7974 40.4477C25.5005 40.1527 25.3336 39.7525 25.3336 39.3352C25.3336 38.918 25.5005 38.5178 25.7974 38.2227C26.0944 37.9277 26.4971 37.7619 26.917 37.7619H34.6599C36.2434 37.7619 37.7031 36.693 37.9623 35.1453C38.0389 34.6933 38.0153 34.2302 37.8933 33.7882C37.7713 33.3462 37.5538 32.936 37.2559 32.5861C36.958 32.2362 36.5869 31.955 36.1685 31.7622C35.7501 31.5694 35.2944 31.4695 34.8331 31.4696H18.999C16.3284 31.469 13.7388 32.3803 11.6638 34.0508L7.06203 37.7619H1.58341C1.16435 37.7647 0.763254 37.9314 0.466923 38.2258C0.170591 38.5203 0.00285177 38.9188 0 39.3352V48.7752C0.00285177 49.1916 0.170591 49.5901 0.466923 49.8846C0.763254 50.179 1.16435 50.3457 1.58341 50.3485H35.9237C38.1201 50.3433 40.2582 49.6454 42.0297 48.3553L55.3928 38.5643C56.2362 37.9455 56.7981 37.0196 56.9553 35.9896C57.1124 34.9596 56.8519 33.9098 56.231 33.0704V33.0704Z" fill="#4E7141"/>
</svg>
