<svg width="107" height="69" viewBox="0 0 107 69" fill="none" xmlns="http://www.w3.org/2000/svg">
<path d="M106.153 5.75814C105.703 6.26814 105.333 6.87814 104.803 7.26814C98.4727 12.0381 94.8227 18.3881 93.4427 26.1381C92.8227 29.6381 92.2727 33.1781 90.7027 36.4081C87.2827 43.4281 81.5727 47.3581 73.8527 48.2181C66.8827 48.9981 60.6627 47.0581 55.2927 42.5181C55.0827 42.3481 54.8627 42.1881 54.4527 41.8781C53.6127 44.3681 52.7727 46.7181 52.0427 49.1081C51.5327 50.7881 51.1327 52.5081 50.8127 54.2381C50.7027 54.8081 50.8427 55.5581 51.1427 56.0481C53.0827 59.2081 54.7927 62.4681 55.9727 65.9981C56.1027 66.3881 56.2227 66.7781 56.3827 67.2581C55.0127 67.5981 53.7227 67.9281 52.3527 68.2681C50.2727 62.0481 46.9527 56.6581 42.5427 51.6281C41.8027 52.4281 41.2127 53.2581 40.4527 53.8681C34.4527 58.6981 27.8327 59.9281 20.7027 56.8181C16.0627 54.7881 13.4827 50.9081 11.9727 46.1881C11.0727 43.3681 10.2227 40.5081 8.99271 37.8281C7.45271 34.4681 4.86271 31.8981 1.73271 29.9081C1.50271 29.7581 1.26271 29.6181 1.04271 29.4481C-0.497289 28.3181 -0.307286 26.4381 1.45271 25.6781C4.98271 24.1681 8.6627 23.0781 12.4427 22.4081C16.8527 21.6281 21.2827 21.3081 25.7527 21.7381C31.2527 22.2781 36.4827 23.6681 40.6027 27.5881C45.8627 32.5881 47.5727 38.7681 45.6227 45.7381C45.1127 47.5581 45.2227 48.7781 46.6327 49.9281C46.8127 50.0781 46.9627 50.2681 47.2427 50.5681C47.3927 50.1481 47.5027 49.8481 47.6027 49.5381C48.7927 46.0881 49.9727 42.6281 51.2027 39.1881C51.4327 38.5481 51.4327 38.0781 51.0927 37.4581C46.1827 28.5581 46.7527 19.8981 52.5927 11.6581C55.2327 7.93814 58.9827 5.49814 63.1427 3.69814C70.4027 0.568139 78.0627 -0.19186 85.8627 0.0381395C92.0027 0.21814 98.0127 1.23814 103.893 3.02814C104.963 3.35814 105.763 3.84814 106.173 4.90814V5.73814L106.153 5.75814ZM53.8227 33.4981C54.3127 32.6881 54.6827 32.0681 55.0527 31.4481C58.5027 25.8181 62.7627 20.9181 68.1827 17.0781C72.7027 13.8881 77.6527 11.6781 83.0327 10.4081C83.7127 10.2481 83.9927 10.4081 84.1127 11.0581C84.2327 11.7381 84.4027 12.4081 84.5527 13.0881C84.8627 14.5281 84.8627 14.5381 83.4627 14.8781C80.3527 15.6181 77.3927 16.7681 74.5927 18.2981C67.1127 22.3481 61.7427 28.4381 57.6627 35.7881C56.4427 37.9881 56.4527 37.9881 58.4527 39.5681C63.1127 43.2881 68.4127 44.7681 74.2727 43.8481C80.0927 42.9381 84.5427 39.8881 86.8227 34.3581C87.9227 31.7081 88.5427 28.8181 89.0827 25.9881C90.2027 20.0481 92.2027 14.5281 96.0527 9.78814C97.0227 8.59814 98.0827 7.47814 99.1727 6.25814C98.7827 6.15814 98.4827 6.06814 98.1827 5.99814C91.7727 4.53814 85.2927 4.01814 78.7327 4.51814C73.5227 4.91814 68.4527 5.87814 63.7327 8.18814C56.4527 11.7381 52.3827 17.4381 52.2127 25.6781C52.1527 28.3381 52.6327 30.8881 53.8427 33.4981H53.8227ZM6.99271 27.9781C6.93271 28.1681 6.87271 28.3581 6.80271 28.5481C7.11271 28.7581 7.45271 28.9381 7.73271 29.1981C10.2127 31.4681 12.2227 34.1081 13.4627 37.2381C14.4127 39.6381 15.1627 42.1281 15.9627 44.5881C16.6527 46.7081 17.4827 48.7481 19.0327 50.3981C22.6727 54.2681 28.5927 55.3081 33.8827 52.9781C36.0927 52.0081 38.0227 50.6681 39.6227 48.4481C36.9627 46.3781 34.4227 44.2381 31.7327 42.3381C27.5427 39.3781 22.9627 37.0781 18.1627 35.2581C17.3627 34.9581 17.1527 34.5981 17.5227 33.8081C17.8627 33.0881 18.1227 32.3381 18.3627 31.5781C18.5827 30.9081 18.9127 30.7581 19.5927 31.0281C26.9227 33.8981 33.6927 37.7081 39.6927 42.8381C40.2827 43.3381 40.8727 43.8481 41.5727 44.4481C42.3827 41.1881 42.1427 38.1781 40.8927 35.2681C38.8927 30.6181 35.0627 28.2281 30.4127 26.9381C25.8127 25.6581 21.1127 25.5981 16.4327 26.2381C13.2627 26.6681 10.1327 27.3881 6.99271 27.9781V27.9781Z" fill="#4E7141"/>
</svg>
