<svg width="26" height="26" viewBox="0 0 26 26" fill="none" xmlns="http://www.w3.org/2000/svg">
<path d="M19.0135 6.42277C17.3748 4.92207 15.2482 4.09943 12.992 4.10138C8.93173 4.10487 5.42645 6.82767 4.45863 10.6046C4.38818 10.8796 4.13772 11.0737 3.84789 11.0737H0.844109C0.451069 11.0737 0.152488 10.7248 0.225194 10.347C1.35939 4.45636 6.64746 0 13 0C16.4832 0 19.6463 1.33992 21.9802 3.52129L23.8524 1.69028C24.6449 0.915172 26 1.46414 26 2.56034V9.43318C26 10.1127 25.4368 10.6636 24.7419 10.6636H17.7146C16.5938 10.6636 16.0325 9.33829 16.825 8.56312L19.0135 6.42277ZM1.25806 14.765H8.28535C9.40618 14.765 9.96749 16.0903 9.17496 16.8655L6.98645 19.0059C8.62519 20.5066 10.752 21.3292 13.0082 21.3272C17.0664 21.3237 20.5731 18.6027 21.5414 14.824C21.6118 14.5491 21.8623 14.3549 22.1521 14.3549H25.1559C25.549 14.3549 25.8476 14.7039 25.7749 15.0817C24.6406 20.9722 19.3525 25.4286 13 25.4286C9.51684 25.4286 6.3537 24.0887 4.01978 21.9073L2.14762 23.7383C1.35509 24.5134 0 23.9644 0 22.8682V15.9954C0 15.3158 0.563246 14.765 1.25806 14.765Z" fill="white"/>
</svg>
