<svg xmlns="http://www.w3.org/2000/svg" xmlns:xlink="http://www.w3.org/1999/xlink" width="821" height="100" viewBox="0 0 821 100"><defs><path id="S" d="M657.56 10.43c-8.43 0-12.95 36.54-12.95 45.21h25.9c0-10.87-5.25-45.21-12.95-45.21"/><path id="a" d="M75.94 59.82c0 15.37-23.89 16.79-37.19 11.89v-12.4h23.37l-.26-15.11c9.39 1.63 14.08 6.84 14.08 15.62z"/><path id="c" d="M71.44 93.71c-.42.35-8.51-8.4-18.09-19.54-9.57-11.14-17-20.46-16.59-20.81.42-.35 8.51 8.39 18.09 19.53 9.57 11.14 17 20.46 16.59 20.82"/><path id="d" d="M9.19 81.25L0 93.79l12.98-11.38 4-14.18H9.85l-.66 13.02z"/><path id="e" d="M20.86 99.46l-7.9-31.75h7.13l.77 31.75z"/><path id="f" d="M14.06 26.8c-7.32 0-12.09 47.52-12.09 47.52h24.8S21.51 26.8 14.06 26.8"/><path id="g" d="M13.96 31.42c1.57-1.01 9.31 12.32 9.31 12.32s13.35 8.24 13 9.47c-.3 1.02-7.31-1.8-14.05-5.02-1.79-.85-3.21-2.35-4.12-4.08-3.12-5.95-5.44-11.85-4.14-12.69"/><path id="h" d="M50.54 92.59c0-3.5-2.84-6.35-6.35-6.35s-6.35 2.85-6.35 6.35c0 3.51 2.84 6.35 6.35 6.35s6.35-2.84 6.35-6.35"/><path id="i" d="M38.12 52.95c.31.77-.06 1.64-.83 1.94-.76.31-1.63-.06-1.94-.82-.3-.77.07-1.63.83-1.94.76-.31 1.63.06 1.94.82"/><path id="j" d="M48.3 93.02c0 2.14-1.73 3.87-3.87 3.87s-3.88-1.73-3.88-3.87 1.74-3.88 3.88-3.88c2.14 0 3.87 1.74 3.87 3.88"/><path id="k" d="M74.86 95.01a3.93 3.93 0 00-3.93-3.93c-2.18 0-3.94 1.76-3.94 3.93s1.76 3.93 3.94 3.93a3.93 3.93 0 003.93-3.93"/><path id="l" d="M73.47 95.27a2.4 2.4 0 01-4.8 0c0-1.32 1.08-2.4 2.4-2.4a2.4 2.4 0 012.4 2.4"/><path id="m" d="M15.87 27.73l-3.37-.15s-1.38-3.06-.35-5.34c1.33-2.95 4.16-1.64 4.65.47.46 1.98-.93 5.02-.93 5.02"/><path id="n" d="M16.17 21.45s-.63 6.12-4.54 8.16-6.13-.08-5.94-3.1c.29-4.87 6.97-8.62 10.48-5.06"/><path id="o" d="M178.78 35.93h-69.83c-7.61 0-13.83 6.23-13.83 13.83v49.7h97.49v-49.7c-4.15-9.22-8.76-13.83-13.83-13.83z"/><path id="p" d="M107.28 55.51c-1.59 0-2.9-1.3-2.9-2.9v-4.3c0-1.6 1.31-2.9 2.9-2.9 1.6 0 2.91 1.3 2.91 2.9v4.3c0 1.6-1.31 2.9-2.91 2.9"/><path id="q" d="M119.76 55.51c-1.6 0-2.91-1.3-2.91-2.9v-4.3c0-1.6 1.31-2.9 2.91-2.9 1.59 0 2.9 1.3 2.9 2.9v4.3c0 1.6-1.31 2.9-2.9 2.9"/><path id="r" d="M132.02 55.51c-1.6 0-2.91-1.3-2.91-2.9v-4.3c0-1.6 1.31-2.9 2.91-2.9 1.59 0 2.9 1.3 2.9 2.9v4.3c0 1.6-1.31 2.9-2.9 2.9"/><path id="s" d="M144.44 55.51c-1.6 0-2.9-1.3-2.9-2.9v-4.3c0-1.6 1.3-2.9 2.9-2.9 1.6 0 2.9 1.3 2.9 2.9v4.3c0 1.6-1.3 2.9-2.9 2.9"/><path id="t" d="M156.7 55.51c-1.6 0-2.91-1.3-2.91-2.9v-4.3c0-1.6 1.31-2.9 2.91-2.9 1.59 0 2.9 1.3 2.9 2.9v4.3c0 1.6-1.31 2.9-2.9 2.9"/><path id="u" d="M169.19 55.51c-1.6 0-2.9-1.3-2.9-2.9v-4.3c0-1.6 1.3-2.9 2.9-2.9 1.6 0 2.9 1.3 2.9 2.9v4.3c0 1.6-1.3 2.9-2.9 2.9"/><path id="v" d="M181.45 55.51c-1.6 0-2.91-1.3-2.91-2.9v-4.3c0-1.6 1.31-2.9 2.91-2.9 1.59 0 2.9 1.3 2.9 2.9v4.3c0 1.6-1.31 2.9-2.9 2.9"/><path id="w" d="M107.28 75.11c-1.59 0-2.9-1.3-2.9-2.9v-4.3c0-1.6 1.31-2.9 2.9-2.9 1.6 0 2.91 1.3 2.91 2.9v4.3c0 1.6-1.31 2.9-2.91 2.9"/><path id="x" d="M119.76 75.11c-1.6 0-2.91-1.3-2.91-2.9v-4.3c0-1.6 1.31-2.9 2.91-2.9 1.59 0 2.9 1.3 2.9 2.9v4.3c0 1.6-1.31 2.9-2.9 2.9"/><path id="y" d="M132.02 75.11c-1.6 0-2.91-1.3-2.91-2.9v-4.3c0-1.6 1.31-2.9 2.91-2.9 1.59 0 2.9 1.3 2.9 2.9v4.3c0 1.6-1.31 2.9-2.9 2.9"/><path id="z" d="M144.44 75.11c-1.6 0-2.9-1.3-2.9-2.9v-4.3c0-1.6 1.3-2.9 2.9-2.9 1.6 0 2.9 1.3 2.9 2.9v4.3c0 1.6-1.3 2.9-2.9 2.9"/><path id="A" d="M156.7 75.11c-1.6 0-2.91-1.3-2.91-2.9v-4.3c0-1.6 1.31-2.9 2.91-2.9 1.59 0 2.9 1.3 2.9 2.9v4.3c0 1.6-1.31 2.9-2.9 2.9"/><path id="B" d="M169.19 75.11c-1.6 0-2.9-1.3-2.9-2.9v-4.3c0-1.6 1.3-2.9 2.9-2.9 1.6 0 2.9 1.3 2.9 2.9v4.3c0 1.6-1.3 2.9-2.9 2.9"/><path id="C" d="M181.45 75.11c-1.6 0-2.91-1.3-2.91-2.9v-4.3c0-1.6 1.31-2.9 2.91-2.9 1.59 0 2.9 1.3 2.9 2.9v4.3c0 1.6-1.31 2.9-2.9 2.9"/><path id="D" d="M107.28 94.64c-1.59 0-2.9-1.31-2.9-2.9v-4.3c0-1.6 1.31-2.91 2.9-2.91 1.6 0 2.91 1.31 2.91 2.91v4.3c0 1.59-1.31 2.9-2.91 2.9"/><path id="E" d="M119.76 94.64c-1.6 0-2.91-1.31-2.91-2.9v-4.3c0-1.6 1.31-2.91 2.91-2.91 1.59 0 2.9 1.31 2.9 2.91v4.3c0 1.59-1.31 2.9-2.9 2.9"/><path id="F" d="M132.02 94.64c-1.6 0-2.91-1.31-2.91-2.9v-4.3c0-1.6 1.31-2.91 2.91-2.91 1.59 0 2.9 1.31 2.9 2.91v4.3c0 1.59-1.31 2.9-2.9 2.9"/><path id="G" d="M144.44 94.64c-1.6 0-2.9-1.31-2.9-2.9v-4.3c0-1.6 1.3-2.91 2.9-2.91 1.6 0 2.9 1.31 2.9 2.91v4.3c0 1.59-1.3 2.9-2.9 2.9"/><path id="H" d="M156.7 94.64c-1.6 0-2.91-1.31-2.91-2.9v-4.3c0-1.6 1.31-2.91 2.91-2.91 1.59 0 2.9 1.31 2.9 2.91v4.3c0 1.59-1.31 2.9-2.9 2.9"/><path id="I" d="M169.19 94.64c-1.6 0-2.9-1.31-2.9-2.9v-4.3c0-1.6 1.3-2.91 2.9-2.91 1.6 0 2.9 1.31 2.9 2.91v4.3c0 1.59-1.3 2.9-2.9 2.9"/><path id="J" d="M181.45 94.64c-1.6 0-2.91-1.31-2.91-2.9v-4.3c0-1.6 1.31-2.91 2.91-2.91 1.59 0 2.9 1.31 2.9 2.91v4.3c0 1.59-1.31 2.9-2.9 2.9"/><path id="K" d="M539.25 64.32c0 3.04 2.47 5.5 5.51 5.5 3.04 0 5.5-2.46 5.5-5.5s-2.46-5.51-5.5-5.51c-3.67 1.65-5.51 3.48-5.51 5.51zm11.4-33.95l19.93 22.26v46.83H532.1V52.63l18.55-22.26z"/><path id="L" d="M553.83 64.32c0 3.04 2.47 5.5 5.51 5.5 3.04 0 5.5-2.46 5.5-5.5s-2.46-5.51-5.5-5.51c-3.67 1.65-5.51 3.48-5.51 5.51zm11.4-33.95l19.93 22.26v46.83h-38.48V52.63l18.55-22.26z"/><path id="M" d="M568.41 64.32c0 3.04 2.47 5.5 5.51 5.5 3.04 0 5.5-2.46 5.5-5.5s-2.46-5.51-5.5-5.51c-3.67 1.65-5.51 3.48-5.51 5.51zm11.4-33.95l19.93 22.26v46.83h-38.48V52.63l18.55-22.26z"/><path id="N" d="M582.99 64.32c0 3.04 2.47 5.5 5.51 5.5 3.04 0 5.5-2.46 5.5-5.5s-2.46-5.51-5.5-5.51c-3.67 1.65-5.51 3.48-5.51 5.51zm11.39-33.95l19.94 22.26v46.83h-38.48V52.63l18.54-22.26z"/><path id="O" d="M597.57 64.32c0 3.04 2.47 5.5 5.51 5.5 3.04 0 5.5-2.46 5.5-5.5s-2.46-5.51-5.5-5.51c-3.67 1.65-5.51 3.48-5.51 5.51zm11.39-33.95l19.94 22.26v46.83h-38.48V52.63l18.54-22.26z"/><path id="P" d="M678.13 13.89c0 1.01-.82 1.83-1.84 1.83a1.83 1.83 0 01-1.83-1.83 1.835 1.835 0 113.67 0"/><path id="Q" d="M661.5 17.72l9.61 6.17 2.11-9.77c4.55 2.02 7.07 3.14 7.58 3.36 0 0-5.31 9.69-6.25 11.57-.94 1.87-4.09 3.02-5.94 1.17-2.27-2.27-8.75-9.46-8.75-9.46"/><path id="R" d="M668.9 4.94v2.64l6.17 2.4 6.17 2.4V0l-6.17 2.47-6.17 2.47z"/><path id="b" d="M50.79 84.1c-2.96 4.23-5.81 7.36-6.37 6.97-.55-.39 1.4-4.14 4.36-8.38 2.96-4.24 5.82-7.36 6.37-6.97.56.39-1.39 4.14-4.36 8.38"/><path id="T" d="M672.47 96.12l-14.91-39.74-14.3 38.89 1.35-39.63h25.9l1.96 40.48z"/><path id="U" d="M651.67 97.61c0 2.19-8.6 1.83-8.6 1.83.02-.29.08-1.75.2-4.37 5.6.22 8.4 1.07 8.4 2.54z"/><path id="V" d="M680.74 97.61c.34 2.19-8.31 1.83-8.31 1.83-.03-.29-.19-1.75-.47-4.37 5.63.22 8.55 1.07 8.78 2.54z"/><path id="W" d="M655.22 11.38h4.56s1.25-2.98 1.25-6.45c0-4.25-6.82-4.04-6.82-.08 0 3.26 1.01 6.53 1.01 6.53"/><path id="X" d="M646.73 43.4c0 1.01-.83 1.83-1.84 1.83a1.84 1.84 0 01-1.84-1.83c0-1.02.83-1.84 1.84-1.84 1.01 0 1.84.82 1.84 1.84"/><path id="Y" d="M656.54 17.66c.5-2.44-2.23-3.46-3.56-1.74-1.05 1.36-11.69 25.18-11.69 25.18.94.32 8.51 2.84 9.46 3.16 0 0 5.26-24 5.79-26.6"/><path id="Z" d="M432.88 36.57c0 3.73 1.15 12.06 2.55 12.06 1.41 0 2.56-8.33 2.56-12.06 0-3.74-1.15-6.78-2.56-6.78-1.4 0-2.55 3.04-2.55 6.78"/><path id="aa" d="M424.84 36.57c0 3.73 1.14 12.06 2.55 12.06s2.55-8.33 2.55-12.06c0-3.74-1.14-6.78-2.55-6.78s-2.55 3.04-2.55 6.78"/><path id="ab" d="M402.47 18.22c0 1.47 3.12 2.65 6.96 2.65 3.85 0 6.97-1.18 6.97-2.65 0-1.46-3.12-2.65-6.97-2.65-3.84 0-6.96 1.19-6.96 2.65"/><path id="ac" d="M420.09 19a5.875 5.875 0 11-11.75 0c0-3.24 2.63-5.88 5.88-5.88 3.24 0 5.87 2.64 5.87 5.88"/><path id="ad" d="M415.92 25.82c0 4.71 7.73 8.53 17.25 8.53 9.53 0 17.25-3.82 17.25-8.53 0-4.71-7.72-8.52-17.25-8.52-9.52 0-17.25 3.81-17.25 8.52"/><path id="ae" d="M426.96 8.36c-3.46 5.98-3.26 12.57.44 14.7 3.7 2.14 9.5-.98 12.95-6.96 3.46-5.99 3.26-12.57-.44-14.7-3.7-2.14-9.5.98-12.95 6.96"/><path id="af" d="M713.58 89.6c0 5.44-1.45 9.86-3.25 9.86-1.79 0-3.24-4.42-3.24-9.86 0-5.45 1.45-9.87 3.24-9.87 1.8 0 3.25 4.42 3.25 9.87"/><path id="ag" d="M743.31 89.6c0 5.44-1.45 9.86-3.24 9.86-1.8 0-3.25-4.42-3.25-9.86 0-5.45 1.45-9.87 3.25-9.87 1.79 0 3.24 4.42 3.24 9.87"/><path id="ah" d="M771.96 89.6c0 5.44-1.45 9.86-3.24 9.86-1.8 0-3.25-4.42-3.25-9.86 0-5.45 1.45-9.87 3.25-9.87 1.79 0 3.24 4.42 3.24 9.87"/><path id="ai" d="M800.61 89.6c0 5.44-1.45 9.86-3.24 9.86-1.79 0-3.25-4.42-3.25-9.86 0-5.45 1.46-9.87 3.25-9.87s3.24 4.42 3.24 9.87"/><path id="aj" d="M819.76 67.64c0 12.46-10.1 22.56-22.56 22.56-12.46 0-22.56-10.1-22.56-22.56 0-12.45 10.1-22.55 22.56-22.55 12.46 0 22.56 10.1 22.56 22.55"/><path id="ak" d="M791.65 67.64c0 12.46-10.1 22.56-22.56 22.56-12.46 0-22.56-10.1-22.56-22.56 0-12.45 10.1-22.55 22.56-22.55 12.46 0 22.56 10.1 22.56 22.55"/><path id="al" d="M763.27 67.64c0 12.46-10.1 22.56-22.56 22.56-12.46 0-22.56-10.1-22.56-22.56 0-12.45 10.1-22.55 22.56-22.55 12.46 0 22.56 10.1 22.56 22.55"/><path id="am" d="M734.35 67.64c0 12.46-10.1 22.56-22.56 22.56-12.46 0-22.56-10.1-22.56-22.56 0-12.45 10.1-22.55 22.56-22.55 12.46 0 22.56 10.1 22.56 22.55"/><path id="an" d="M315.32 77.8c0-11.96-1.43-21.65-3.21-21.65-1.77 0-3.21 9.69-3.21 21.65 0 11.97 1.44 21.66 3.21 21.66 1.78 0 3.21-9.69 3.21-21.66"/><path id="ao" d="M326.34 77.8c0-11.96-1.44-21.65-3.22-21.65-1.77 0-3.21 9.69-3.21 21.65 0 11.97 1.44 21.66 3.21 21.66 1.78 0 3.22-9.69 3.22-21.66"/><path id="ap" d="M333 79.76c0-32.61-6.67-59.05-14.9-59.05s-14.9 26.44-14.9 59.05c0 2.97.07 5.85.18 8.7h29.44c.11-2.85.18-5.73.18-8.7"/><path id="aq" d="M322.49 18.27a4.44 4.44 0 01-4.44 4.43c-2.45 0-4.43-1.99-4.43-4.43a4.434 4.434 0 118.87 0"/><path id="ar" d="M318.15 41.49c0 8.93-1.18 16.16-2.64 16.16-1.45 0-2.63-7.23-2.63-16.16 0-8.92 1.18-16.15 2.63-16.15 1.46 0 2.64 7.23 2.64 16.15"/><path id="as" d="M319.25 3.93h-2.68l-2.45 6.29-2.45 6.29H324.29l-2.52-6.29-2.52-6.29z"/><path id="at" d="M451.29 99.46h-7.75l14.1-36.21 14.11-36.22h15.46l14.5 36.22 14.5 36.21h-64.92z"/><path id="au" d="M463.47 88.49c.08-.72.17-1.24.27-1.59a2.325 2.325 0 011.31-1.5c.33-.15.69-.2 1.08-.16.42.05.79.21 1.12.47.33.27.56.61.69 1.02.22-.53.54-.92.96-1.18.41-.25.88-.34 1.4-.28.41.04.8.18 1.16.41.37.24.65.53.84.89.2.35.29.78.29 1.26 0 .31-.06 1.04-.18 2.2-.03.21-.14 1.23-.35 3.07l-8.99-1.02c.24-2.16.37-3.35.4-3.59z"/><path id="av" d="M464.29 81.21c2.92.33 4.55.51 4.87.55.78.08 1.28.12 1.51.1.38-.04.7-.19.95-.46.26-.27.42-.65.47-1.16.06-.52 0-.92-.18-1.2a1.23 1.23 0 00-.73-.56c-.3-.09-.8-.17-1.51-.25-.34-.04-2-.23-4.98-.56l.2-1.82c2.84.32 4.41.5 4.73.53 1.08.12 1.84.26 2.27.41.44.14.79.37 1.07.67.28.3.48.68.61 1.14.13.46.16 1.05.08 1.76-.1.86-.27 1.5-.52 1.92-.24.42-.54.74-.89.97-.34.22-.7.35-1.05.39-.53.06-1.3.04-2.31-.08-.32-.03-1.92-.21-4.79-.54l.2-1.81z"/><path id="aw" d="M465.31 72.13c2.92.33 4.55.51 4.87.55.78.09 1.28.12 1.51.1.38-.04.7-.19.95-.45.26-.27.42-.66.47-1.17.06-.51 0-.91-.18-1.2-.18-.28-.42-.47-.72-.56-.31-.09-.81-.17-1.52-.25-.34-.04-1.99-.22-4.98-.56l.2-1.82c2.84.32 4.41.5 4.73.54 1.08.12 1.84.25 2.27.4.44.15.79.37 1.07.67.28.3.48.68.61 1.14.14.46.16 1.05.08 1.76-.09.86-.27 1.5-.52 1.92-.24.43-.54.75-.89.97-.34.22-.69.35-1.05.4-.53.06-1.3.03-2.31-.08-.31-.04-1.91-.22-4.79-.54l.2-1.82z"/><path id="ax" d="M466.13 64.85c.26-2.29.4-3.57.43-3.82.11-.96.27-1.65.48-2.07.21-.42.53-.73.98-.95.44-.21.93-.29 1.46-.23.67.07 1.21.34 1.6.78.4.45.61 1.07.64 1.87.27-.36.56-.66.86-.88.3-.23.83-.52 1.58-.87.12-.06.75-.36 1.88-.9l-.25 2.17c-1.26.65-1.96 1.02-2.1 1.09-.76.39-1.23.66-1.43.81-.2.15-.35.32-.44.5-.09.19-.16.49-.2.91-.01.02-.02.15-.05.37l3.76.42-.2 1.81-9-1.01z"/><path id="ay" d="M468.9 53.93l-.3 2.67-1.52-.17.8-7.15 1.52.17-.3 2.66 7.48.84-.21 1.82-7.47-.84z"/><path id="az" d="M481.03 88.28c.45-1.02.7-1.59.75-1.7.96.38 1.64.91 2.04 1.6.41.68.56 1.5.45 2.47-.14 1.19-.66 2.13-1.56 2.8-.9.68-2.06.94-3.48.78-1.49-.17-2.61-.69-3.35-1.55-.75-.87-1.05-1.93-.9-3.19.12-1.1.55-1.96 1.27-2.57.43-.37 1.02-.61 1.76-.74.03.19.21 1.66.23 1.85-.48.05-.87.23-1.18.54-.31.31-.49.7-.54 1.19-.08.66.1 1.23.53 1.7.44.47 1.19.76 2.26.88 1.14.13 1.97.02 2.5-.34.53-.35.83-.86.9-1.51a1.8 1.8 0 00-.32-1.3c-.27-.38-.72-.68-1.36-.91"/><path id="aA" d="M484.82 84.32l-.21 1.93-8.61-4.52.22-1.92 9.4-2.59-.22 1.98"/><path id="aB" d="M476.76 75.31l.29-2.72 6.31-1-5.97-2.25.28-2.73 9.01.94-.18 1.69-7.09-.74 6.9 2.53-.18 1.75-7.28 1.04 7.09.74-.17 1.69-9.01-.94z"/><path id="aC" d="M477.91 64.77c.2-1.75.31-2.72.33-2.91.12-1.11.25-1.82.38-2.15.19-.5.53-.9 1.02-1.19.49-.3 1.1-.41 1.81-.33.56.07 1.01.22 1.36.46.36.24.62.53.8.86.18.34.29.67.32.99.04.45.02 1.08-.08 1.9-.01.08-.05.48-.13 1.19l3.39.38-.2 1.82-9-1.02z"/><path id="aD" d="M479.06 54.59c2.92.33 4.55.51 4.87.54.77.09 1.28.13 1.51.11.38-.04.69-.19.95-.46s.41-.65.47-1.16c.06-.52 0-.92-.19-1.2-.18-.29-.42-.48-.72-.56-.3-.09-.81-.18-1.52-.25-.33-.04-1.99-.23-4.97-.57l.2-1.81c2.84.32 4.41.5 4.73.53 1.07.12 1.83.26 2.27.4.43.15.79.38 1.07.68.27.29.48.67.61 1.14.13.46.16 1.05.08 1.76-.1.86-.27 1.5-.52 1.92-.25.42-.54.74-.89.96-.35.23-.7.36-1.06.4-.52.06-1.29.04-2.3-.08-.32-.03-1.92-.21-4.8-.54l.21-1.81z"/><path id="aE" d="M485.89 48.46c.02-1.08.03-1.67.03-1.79.61-.04 1.07-.21 1.38-.5.31-.29.5-.72.57-1.27.06-.59-.01-1.04-.23-1.36-.21-.33-.48-.51-.82-.55-.21-.02-.4.02-.56.13-.16.11-.32.31-.46.61-.1.2-.29.67-.56 1.41-.35.95-.72 1.6-1.12 1.95-.56.5-1.19.7-1.9.62-.46-.05-.88-.23-1.25-.53-.36-.31-.63-.71-.78-1.23-.15-.51-.19-1.11-.11-1.8.12-1.13.47-1.95 1.02-2.47.56-.51 1.26-.74 2.09-.67-.01.18-.11 1.64-.13 1.82-.47.03-.82.16-1.05.39-.23.23-.38.6-.43 1.12-.06.52 0 .95.18 1.27.12.21.3.33.53.35.21.03.4-.04.58-.21.21-.2.48-.74.79-1.6.3-.86.59-1.49.86-1.89.27-.39.62-.69 1.03-.89.41-.19.9-.26 1.47-.19.52.05.98.25 1.4.59.42.33.71.78.87 1.33.16.55.2 1.21.11 1.99-.13 1.14-.49 1.98-1.09 2.53-.59.55-1.4.83-2.42.84"/><path id="aF" d="M290.02 33.71c.15-.34.27-.74.38-1.21.09-.37.15-.76.21-1.15.17-1.24.27-2.78.27-4.73 0-6.83-1.32-12.37-2.95-12.37-1.12 0-2.09 2.68-2.58 6.58-1.52-.84-3.23-1.37-5.09-1.37-1.85 0-3.56.52-5.07 1.36-.49-3.89-1.46-6.57-2.58-6.57-1.63 0-2.95 5.54-2.95 12.37 0 1.14.05 2.22.12 3.27 0 .02-.01.04-.01.06 0 .13.04.26.04.39.09 1.11.19 2.18.35 3.13-.15 0-.3-.02-.45-.02h-40.26c-2.66 0-5.16.69-7.34 1.89-.09-3.83-2.01-9.64-5.42-15.58-5.24-9.15-11.99-15.12-15.08-13.35-3.08 1.77-1.33 10.61 3.91 19.75 3.84 6.69 8.47 11.67 11.9 13.18a15.124 15.124 0 00-3 6.52c-1.11 4.1-1.81 9.92-1.81 16.38 0 12.43 2.57 37.22 5.74 37.22 3.1 0 5.63-23.73 5.73-36.39 1.43.54 2.95.87 4.54.96.22 12.85 2.7 35.43 5.72 35.43 3.03 0 5.5-22.53 5.72-35.39h18.52c.23 12.86 2.7 35.39 5.72 35.39 3.03 0 5.5-22.55 5.72-35.41 1.8-.03 3.52-.39 5.12-1 .11 12.65 2.63 36.41 5.74 36.41 3.17 0 5.74-24.79 5.74-37.22 0-7.14-.86-13.49-2.18-17.61-.45-1.59-1.13-3.08-2.04-4.41 3.51-.73 6.36-3.23 7.62-6.51"/><path id="aG" d="M786.86 6.55c-5.04 0-9.48 1.62-12.22 4.1C771.73 4.58 763.07.18 752.84.18c-5.91 0-11.29 1.48-15.34 3.9-2.23-1.66-5.46-2.73-9.1-2.73-6.72 0-12.16 3.57-12.16 7.97 0 .12.04.24.05.36-.93-.22-1.92-.36-2.96-.36-4.82 0-8.73 2.56-8.73 5.72 0 3.1 3.79 5.62 8.5 5.7-.01.17-.04.35-.04.53 0 5.26 6.52 9.53 14.55 9.53 4.69 0 8.85-1.46 11.51-3.72 3.82 1.89 8.56 3.03 13.72 3.03 9.3 0 17.29-3.65 20.86-8.88 2.58 3.02 7.5 5.06 13.16 5.06 8.32 0 15.07-4.42 15.07-9.87 0-5.45-6.75-9.87-15.07-9.87"/><path id="aH" d="M374.68 80.89c0-10.25-2.16-18.57-4.83-18.57-2.66 0-4.82 8.32-4.82 18.57 0 10.26 2.16 18.57 4.82 18.57 2.67 0 4.83-8.31 4.83-18.57"/><path id="aI" d="M394.85 47.85c0 13.81-11.19 25-25 25s-25-11.19-25-25 11.19-25 25-25 25 11.19 25 25"/><path id="aJ" d="M423.01 80.53c0-16.52-6.16-29.9-13.76-29.9s-13.77 13.38-13.77 29.9c0 7.18 1.17 13.77 3.12 18.93h21.3c1.94-5.16 3.11-11.75 3.11-18.93"/></defs><g><g><g><use fill="#78954d" xlink:href="#a"/><g><use fill-opacity="0" stroke="#000" stroke-opacity="0" xlink:href="#a"/></g></g><g><use fill="#a2adbb" xlink:href="#b"/><g><use fill-opacity="0" stroke="#000" stroke-opacity="0" xlink:href="#b"/></g></g><g><use fill="#a2adbb" xlink:href="#c"/><g><use fill-opacity="0" stroke="#000" stroke-opacity="0" xlink:href="#c"/></g></g><g><use fill="#e36736" xlink:href="#d"/><g><use fill-opacity="0" stroke="#000" stroke-opacity="0" xlink:href="#d"/></g></g><g><use fill="#e36736" xlink:href="#e"/><g><use fill-opacity="0" stroke="#000" stroke-opacity="0" xlink:href="#e"/></g></g><g><use fill="#a2adbb" xlink:href="#f"/><g><use fill-opacity="0" stroke="#000" stroke-opacity="0" xlink:href="#f"/></g></g><g><use fill="#2e335a" xlink:href="#g"/><g><use fill-opacity="0" stroke="#000" stroke-opacity="0" xlink:href="#g"/></g></g><g><use fill="#2e335a" xlink:href="#h"/><g><use fill-opacity="0" stroke="#000" stroke-opacity="0" xlink:href="#h"/></g></g><g><use fill="#ed996e" xlink:href="#i"/><g><use fill-opacity="0" stroke="#000" stroke-opacity="0" xlink:href="#i"/></g></g><g><use fill="#78954d" xlink:href="#j"/><g><use fill-opacity="0" stroke="#000" stroke-opacity="0" xlink:href="#j"/></g></g><g><use fill="#2e335a" xlink:href="#k"/><g><use fill-opacity="0" stroke="#000" stroke-opacity="0" xlink:href="#k"/></g></g><g><use fill="#78954d" xlink:href="#l"/><g><use fill-opacity="0" stroke="#000" stroke-opacity="0" xlink:href="#l"/></g></g><g><use fill="#ed996e" xlink:href="#m"/><g><use fill-opacity="0" stroke="#000" stroke-opacity="0" xlink:href="#m"/></g></g><g><use fill="#e36736" xlink:href="#n"/><g><use fill-opacity="0" stroke="#000" stroke-opacity="0" xlink:href="#n"/></g></g><g><use fill="#5c748c" xlink:href="#o"/><g><use fill-opacity="0" stroke="#000" stroke-opacity="0" xlink:href="#o"/></g></g><g><use fill="#2e335a" xlink:href="#p"/><g><use fill-opacity="0" stroke="#000" stroke-opacity="0" xlink:href="#p"/></g></g><g><use fill="#2e335a" xlink:href="#q"/><g><use fill-opacity="0" stroke="#000" stroke-opacity="0" xlink:href="#q"/></g></g><g><use fill="#2e335a" xlink:href="#r"/><g><use fill-opacity="0" stroke="#000" stroke-opacity="0" xlink:href="#r"/></g></g><g><use fill="#2e335a" xlink:href="#s"/><g><use fill-opacity="0" stroke="#000" stroke-opacity="0" xlink:href="#s"/></g></g><g><use fill="#2e335a" xlink:href="#t"/><g><use fill-opacity="0" stroke="#000" stroke-opacity="0" xlink:href="#t"/></g></g><g><use fill="#2e335a" xlink:href="#u"/><g><use fill-opacity="0" stroke="#000" stroke-opacity="0" xlink:href="#u"/></g></g><g><use fill="#2e335a" xlink:href="#v"/><g><use fill-opacity="0" stroke="#000" stroke-opacity="0" xlink:href="#v"/></g></g><g><use fill="#2e335a" xlink:href="#w"/><g><use fill-opacity="0" stroke="#000" stroke-opacity="0" xlink:href="#w"/></g></g><g><use fill="#2e335a" xlink:href="#x"/><g><use fill-opacity="0" stroke="#000" stroke-opacity="0" xlink:href="#x"/></g></g><g><use fill="#2e335a" xlink:href="#y"/><g><use fill-opacity="0" stroke="#000" stroke-opacity="0" xlink:href="#y"/></g></g><g><use fill="#2e335a" xlink:href="#z"/><g><use fill-opacity="0" stroke="#000" stroke-opacity="0" xlink:href="#z"/></g></g><g><use fill="#2e335a" xlink:href="#A"/><g><use fill-opacity="0" stroke="#000" stroke-opacity="0" xlink:href="#A"/></g></g><g><use fill="#2e335a" xlink:href="#B"/><g><use fill-opacity="0" stroke="#000" stroke-opacity="0" xlink:href="#B"/></g></g><g><use fill="#2e335a" xlink:href="#C"/><g><use fill-opacity="0" stroke="#000" stroke-opacity="0" xlink:href="#C"/></g></g><g><use fill="#2e335a" xlink:href="#D"/><g><use fill-opacity="0" stroke="#000" stroke-opacity="0" xlink:href="#D"/></g></g><g><use fill="#2e335a" xlink:href="#E"/><g><use fill-opacity="0" stroke="#000" stroke-opacity="0" xlink:href="#E"/></g></g><g><use fill="#2e335a" xlink:href="#F"/><g><use fill-opacity="0" stroke="#000" stroke-opacity="0" xlink:href="#F"/></g></g><g><use fill="#2e335a" xlink:href="#G"/><g><use fill-opacity="0" stroke="#000" stroke-opacity="0" xlink:href="#G"/></g></g><g><use fill="#2e335a" xlink:href="#H"/><g><use fill-opacity="0" stroke="#000" stroke-opacity="0" xlink:href="#H"/></g></g><g><use fill="#2e335a" xlink:href="#I"/><g><use fill-opacity="0" stroke="#000" stroke-opacity="0" xlink:href="#I"/></g></g><g><use fill="#2e335a" xlink:href="#J"/><g><use fill-opacity="0" stroke="#000" stroke-opacity="0" xlink:href="#J"/></g></g><g><use fill="#a2adbb" xlink:href="#K"/><g><use fill-opacity="0" stroke="#000" stroke-opacity="0" xlink:href="#K"/></g></g><g><use fill="#e36736" xlink:href="#L"/><g><use fill-opacity="0" stroke="#000" stroke-opacity="0" xlink:href="#L"/></g></g><g><use fill="#78954d" xlink:href="#M"/><g><use fill-opacity="0" stroke="#000" stroke-opacity="0" xlink:href="#M"/></g></g><g><use fill="#125155" xlink:href="#N"/><g><use fill-opacity="0" stroke="#000" stroke-opacity="0" xlink:href="#N"/></g></g><g><use fill="#5c748c" xlink:href="#O"/><g><use fill-opacity="0" stroke="#000" stroke-opacity="0" xlink:href="#O"/></g></g><g><use fill="#7d786a" xlink:href="#P"/><g><use fill-opacity="0" stroke="#000" stroke-opacity="0" xlink:href="#P"/></g></g><g><use fill="#726d8a" xlink:href="#Q"/><g><use fill-opacity="0" stroke="#000" stroke-opacity="0" xlink:href="#Q"/></g></g><g><use fill="#e36736" xlink:href="#R"/><g><use fill-opacity="0" stroke="#000" stroke-opacity="0" xlink:href="#R"/></g></g><g><use fill="#2e335a" xlink:href="#S"/><g><use fill-opacity="0" stroke="#000" stroke-opacity="0" xlink:href="#S"/></g></g><g><use fill="#565244" xlink:href="#T"/><g><use fill-opacity="0" stroke="#000" stroke-opacity="0" xlink:href="#T"/></g></g><g><use fill="#2e335a" xlink:href="#U"/><g><use fill-opacity="0" stroke="#000" stroke-opacity="0" xlink:href="#U"/></g></g><g><use fill="#2e335a" xlink:href="#V"/><g><use fill-opacity="0" stroke="#000" stroke-opacity="0" xlink:href="#V"/></g></g><g><use fill="#7d786a" xlink:href="#W"/><g><use fill-opacity="0" stroke="#000" stroke-opacity="0" xlink:href="#W"/></g></g><g><use fill="#7d786a" xlink:href="#X"/><g><use fill-opacity="0" stroke="#000" stroke-opacity="0" xlink:href="#X"/></g></g><g><use fill="#726d8a" xlink:href="#Y"/><g><use fill-opacity="0" stroke="#000" stroke-opacity="0" xlink:href="#Y"/></g></g><g><use fill="#e36736" xlink:href="#Z"/><g><use fill-opacity="0" stroke="#000" stroke-opacity="0" xlink:href="#Z"/></g></g><g><use fill="#e36736" xlink:href="#aa"/><g><use fill-opacity="0" stroke="#000" stroke-opacity="0" xlink:href="#aa"/></g></g><g><use fill="#e36736" xlink:href="#ab"/><g><use fill-opacity="0" stroke="#000" stroke-opacity="0" xlink:href="#ab"/></g></g><g><use fill="#2e335a" xlink:href="#ac"/><g><use fill-opacity="0" stroke="#000" stroke-opacity="0" xlink:href="#ac"/></g></g><g><use fill="#2e335a" xlink:href="#ad"/><g><use fill-opacity="0" stroke="#000" stroke-opacity="0" xlink:href="#ad"/></g></g><g><use fill="#2e335a" xlink:href="#ae"/><g><use fill-opacity="0" stroke="#000" stroke-opacity="0" xlink:href="#ae"/></g></g><g><use fill="#2e335a" xlink:href="#af"/><g><use fill-opacity="0" stroke="#000" stroke-opacity="0" xlink:href="#af"/></g></g><g><use fill="#2e335a" xlink:href="#ag"/><g><use fill-opacity="0" stroke="#000" stroke-opacity="0" xlink:href="#ag"/></g></g><g><use fill="#2e335a" xlink:href="#ah"/><g><use fill-opacity="0" stroke="#000" stroke-opacity="0" xlink:href="#ah"/></g></g><g><use fill="#2e335a" xlink:href="#ai"/><g><use fill-opacity="0" stroke="#000" stroke-opacity="0" xlink:href="#ai"/></g></g><g><use fill="#78954d" xlink:href="#aj"/><g><use fill-opacity="0" stroke="#000" stroke-opacity="0" xlink:href="#aj"/></g></g><g><use fill="#78954d" xlink:href="#ak"/><g><use fill-opacity="0" stroke="#000" stroke-opacity="0" xlink:href="#ak"/></g></g><g><use fill="#78954d" xlink:href="#al"/><g><use fill-opacity="0" stroke="#000" stroke-opacity="0" xlink:href="#al"/></g></g><g><use fill="#78954d" xlink:href="#am"/><g><use fill-opacity="0" stroke="#000" stroke-opacity="0" xlink:href="#am"/></g></g><g><use fill="#565244" xlink:href="#an"/><g><use fill-opacity="0" stroke="#000" stroke-opacity="0" xlink:href="#an"/></g></g><g><use fill="#565244" xlink:href="#ao"/><g><use fill-opacity="0" stroke="#000" stroke-opacity="0" xlink:href="#ao"/></g></g><g><use fill="#726d8a" xlink:href="#ap"/><g><use fill-opacity="0" stroke="#000" stroke-opacity="0" xlink:href="#ap"/></g></g><g><use fill="#ed996e" xlink:href="#aq"/><g><use fill-opacity="0" stroke="#000" stroke-opacity="0" xlink:href="#aq"/></g></g><g><use fill="#2e335a" xlink:href="#ar"/><g><use fill-opacity="0" stroke="#000" stroke-opacity="0" xlink:href="#ar"/></g></g><g><use fill="#e36736" xlink:href="#as"/><g><use fill-opacity="0" stroke="#000" stroke-opacity="0" xlink:href="#as"/></g></g><g><use fill="#e36736" xlink:href="#at"/><g><use fill-opacity="0" stroke="#000" stroke-opacity="0" xlink:href="#at"/></g></g><g><use fill="#2e335a" xlink:href="#au"/><g><use fill-opacity="0" stroke="#000" stroke-opacity="0" xlink:href="#au"/></g></g><g><use fill="#2e335a" xlink:href="#av"/><g><use fill-opacity="0" stroke="#000" stroke-opacity="0" xlink:href="#av"/></g></g><g><use fill="#2e335a" xlink:href="#aw"/><g><use fill-opacity="0" stroke="#000" stroke-opacity="0" xlink:href="#aw"/></g></g><g><use fill="#2e335a" xlink:href="#ax"/><g><use fill-opacity="0" stroke="#000" stroke-opacity="0" xlink:href="#ax"/></g></g><g><use fill="#2e335a" xlink:href="#ay"/><g><use fill-opacity="0" stroke="#000" stroke-opacity="0" xlink:href="#ay"/></g></g><g><use fill="#2e335a" xlink:href="#az"/><g><use fill-opacity="0" stroke="#000" stroke-opacity="0" xlink:href="#az"/></g></g><g><use fill="#2e335a" xlink:href="#aA"/><g><use fill-opacity="0" stroke="#000" stroke-opacity="0" xlink:href="#aA"/></g></g><g><use fill="#2e335a" xlink:href="#aB"/><g><use fill-opacity="0" stroke="#000" stroke-opacity="0" xlink:href="#aB"/></g></g><g><use fill="#2e335a" xlink:href="#aC"/><g><use fill-opacity="0" stroke="#000" stroke-opacity="0" xlink:href="#aC"/></g></g><g><use fill="#2e335a" xlink:href="#aD"/><g><use fill-opacity="0" stroke="#000" stroke-opacity="0" xlink:href="#aD"/></g></g><g><use fill="#2e335a" xlink:href="#aE"/><g><use fill-opacity="0" stroke="#000" stroke-opacity="0" xlink:href="#aE"/></g></g><g><use fill="#565244" xlink:href="#aF"/><g><use fill-opacity="0" stroke="#000" stroke-opacity="0" xlink:href="#aF"/></g></g><g><use fill="#aba599" xlink:href="#aG"/><g><use fill-opacity="0" stroke="#000" stroke-opacity="0" xlink:href="#aG"/></g></g><g><use fill="#2e335a" xlink:href="#aH"/><g><use fill-opacity="0" stroke="#000" stroke-opacity="0" xlink:href="#aH"/></g></g><g><use fill="#78954d" xlink:href="#aI"/><g><use fill-opacity="0" stroke="#000" stroke-opacity="0" xlink:href="#aI"/></g></g><g><use fill="#78954d" xlink:href="#aJ"/><g><use fill-opacity="0" stroke="#000" stroke-opacity="0" xlink:href="#aJ"/></g></g></g></g></svg>